<svg version="1.1" xmlns="http://www.w3.org/2000/svg" xmlns:xlink="http://www.w3.org/1999/xlink" width="88.85px" height="122.88px" viewBox="0,0,185.09375,256"><g fill="none" fill-rule="nonzero" stroke="none" stroke-width="none" stroke-linecap="butt" stroke-linejoin="miter" stroke-miterlimit="10" stroke-dasharray="" stroke-dashoffset="0" font-family="none" font-weight="none" font-size="none" text-anchor="none" style="mix-blend-mode: normal"><g transform="translate(-0.00521,0.02052) scale(2.08333,2.08333)"><g><path d="M87.53,59.21c0,24.35 -19.3,44.08 -43.1,44.08c-23.8,0 -43.09,-19.73 -43.09,-44.08c0,-24.35 19.3,-44.08 43.1,-44.08c23.8,0 43.09,19.74 43.09,44.08z" fill="#636363" stroke="none" stroke-width="1"></path><path d="M3.09,70.13c0,0 -3.12,-45.97 39.24,-47.28l-2.96,-4.93l-22.99,7.72l-6.57,7.55l-5.75,11l-3.27,12.81l0.99,8.54l1.31,4.59z" fill="#969696" stroke="none" stroke-width="1"></path><path d="M13,91.48c-8.03,-8.22 -13,-19.57 -13,-32.1c0,-12.53 4.97,-23.89 13,-32.11v0c8.03,-8.22 19.15,-13.31 31.43,-13.31v0c12.27,0 23.4,5.09 31.43,13.31v0c7.84,8.02 12.76,19.02 12.99,31.19v1.84c-0.24,12.17 -5.16,23.17 -12.99,31.19v0c-8.03,8.22 -19.15,13.31 -31.43,13.31v0c-12.27,0 -23.39,-5.1 -31.43,-13.32v0zM0,59.38v0zM14.92,29.14c-7.56,7.74 -12.24,18.42 -12.24,30.24v0c0,11.82 4.68,22.5 12.24,30.23v0c7.57,7.74 17.99,12.51 29.52,12.51v0c11.53,0 21.95,-4.77 29.52,-12.51v0c7.56,-7.73 12.24,-18.42 12.24,-30.23v0c0,-11.82 -4.68,-22.5 -12.24,-30.24v0c-7.57,-7.73 -17.99,-12.51 -29.52,-12.51v0c-11.53,0.01 -21.96,4.78 -29.52,12.51v0z" fill="#323232" stroke="none" stroke-width="1"></path><path d="M62.58,59.46l-6.57,0.98l-8.87,0.99l-5.74,0.16l-5.58,-0.16l-4.27,-1.32l-3.78,-4.1l-2.96,-8.37l-0.65,-1.81l-3.94,-1.32l-2.3,-3.78l-1.64,-5.41l1.81,-4.77l4.27,-1.47l3.44,1.64l1.64,3.61l1.97,-0.33l0.66,-0.83l-0.66,-3.77l-0.16,-4.77l0.99,-6.56l-0.04,-3.75l2.99,-4.79l5.26,-3.78l9.19,-3.94l10.18,1.48l8.87,6.4l4.1,6.57l2.63,4.76l0.65,11.82l-1.97,10.18l-3.61,9.03l-3.45,4.76z" fill="#818181" stroke="none" stroke-width="1"></path><path d="M56.99,87.86l-23.47,0.98v3.95l1.97,13.79l-0.99,1.14l-16.41,-5.58l-1.15,-1.97l-1.64,-18.55l-3.78,-11.17l-0.82,-2.62l13.13,-9.03l4.11,-1.64l3.61,4.43l3.11,2.8l3.61,1.14l1.64,0.5l1.97,8.53l1.48,1.81l3.78,-1.32l-2.63,5.09l14.29,6.74z" fill="#707070" stroke="none" stroke-width="1"></path><path d="M18.09,30.56l4.27,-1.48l3.44,1.64l1.64,3.61l1.97,-0.33l0.5,-1.97l-0.99,-3.78l0.99,-9.02l-0.83,-4.93l2.96,-3.45l6.4,-5.08l-1.81,-2.47l-9.02,4.44l-3.78,2.95l-2.13,4.6l-3.29,4.43l-0.98,5.25z" fill="#484848" stroke="none" stroke-width="1"></path><path d="M24.81,15.13c0,0 2.46,-6.07 12.31,-9.03c9.85,-2.96 0.49,-2.13 0.49,-2.13l-10.67,4.1l-4.1,4.1l-1.81,3.29l3.78,-0.33z" fill="#ddd9d8" stroke="none" stroke-width="1"></path><path d="M19.89,29.41c0,0 -3.45,-11.49 9.69,-13.14l-0.49,-1.97l-9.03,2.13l-2.63,8.54l0.66,5.58l1.8,-1.14z" fill="#ddd9d8" stroke="none" stroke-width="1"></path><path d="M25.14,44.68l2.15,-2.08c0,0 0.97,0.11 1.13,1.26c0.16,1.15 0.66,11.49 7.72,17.08c0.65,0.51 -5.25,-0.82 -5.25,-0.82l-5.25,-8.21l-0.5,-7.23z" fill="#afafaf" stroke="none" stroke-width="1"></path><path d="M55.36,41.56c0,0 0.38,-4.97 1.72,-4.59c1.34,0.38 1.34,1.72 1.34,1.72c0,0 -3.26,2.1 -3.06,2.87z" fill="#afafaf" stroke="none" stroke-width="1"></path><path d="M68.98,23.34c0,0 -2.71,0.57 -2.96,2.96c-0.25,2.38 2.96,0.49 3.45,0.33l-0.49,-3.29z" fill="#afafaf" stroke="none" stroke-width="1"></path><path d="M49.12,23.5c0,0 -3.61,0.49 -3.61,2.79c0,2.3 4.1,2.13 5.26,1.15l-1.65,-3.94z" fill="#afafaf" stroke="none" stroke-width="1"></path><path d="M26.78,34.17c0,0 -6.24,-3.78 -6.9,-0.16c-0.66,3.61 -2.13,6.24 0.98,10.01l-2.13,-0.66l-1.97,-5.09l-0.66,-4.92l3.78,-3.94l4.27,0.33l2.46,1.97l0.17,2.46z" fill="#afafaf" stroke="none" stroke-width="1"></path><path d="M29.74,23.83c0,0 2.79,-14.45 16.91,-17.24c11.63,-2.3 17.73,0.49 20.03,3.12c0,0 -10.34,-12.31 -20.19,-8.54c-9.85,3.78 -17.08,10.67 -16.91,15.11c0.28,7.55 0.16,7.55 0.16,7.55z" fill="#afafaf" stroke="none" stroke-width="1"></path><path d="M67.83,11.35c0,0 -4.76,-0.16 -4.92,4.1c0,0 0,0.65 0.33,1.32c0,0 3.78,-4.27 6.07,-1.97l-1.48,-3.45z" fill="#afafaf" stroke="none" stroke-width="1"></path><path d="M46.98,17.22c0,0 -0.82,-6.55 -6.41,-2.74c-3.61,2.46 -3.29,5.91 -2.63,6.56c0.65,0.66 0.48,1.98 0.98,1.07c0.5,-0.91 0.33,-3.86 2.14,-4.68c1.81,-0.82 4.77,-1.74 5.92,-0.21z" fill="#afafaf" stroke="none" stroke-width="1"></path><path d="M31.55,61.59l-15.43,6.9c0,0 6.4,25.45 3.12,33.33l-2.3,-0.82l-0.16,-9.68l-4.28,-18.4l-1.81,-5.09l16.09,-10.83l4.77,4.59z" fill="#9c9c9c" stroke="none" stroke-width="1"></path><path d="M33.13,75.67l2.19,2.67v9.85h-2.62c0,0 -0.33,-6.9 -0.33,-7.72c0,-0.82 0.33,-3.78 0.33,-3.78l0.43,-1.02z" fill="#9c9c9c" stroke="none" stroke-width="1"></path><path d="M33.19,89.67l-7.39,0.33l2.13,1.48l5.26,0.82z" fill="#9c9c9c" stroke="none" stroke-width="1"></path><path d="M58.47,88.02l6.07,-0.16l1.48,15.11l-6.24,0.82z" fill="#707070" stroke="none" stroke-width="1"></path><path d="M60.11,88.02l9.2,-0.49c0,0 3.78,-9.52 3.78,-10.01c0,-0.49 3.29,-13.79 3.29,-13.79l-7.39,-7.72l-1.48,-1.32l-3.94,3.94v15.27l-3.46,14.12z" fill="#707070" stroke="none" stroke-width="1"></path><path d="M64.21,86.88l-5.75,1.15l0.82,4.6c2.13,0.99 5.75,-1.64 5.75,-1.64l-0.82,-4.11z" fill="#9c9c9c" stroke="none" stroke-width="1"></path><path d="M64.38,58.15l11.49,8.53l0.33,-3.94l-8.7,-8.04z" fill="#9c9c9c" stroke="none" stroke-width="1"></path><path d="M38.88,120.37l-3.39,-13.79l-1.69,-10.18l-0.28,-7.56l15.38,-0.81h9.57l-0.87,17.24l1.47,13.29l-0.16,2.47l-12.47,0.98z" fill="#a1a1a1" stroke="none" stroke-width="1"></path><path d="M56.33,87.86c0,0 -0.82,17.08 1.64,29.22c0,0 -4.92,3.12 -12.15,3.94l13.79,-0.49l1.64,-0.99l-1.97,-26.93l-0.49,-5.75l-2.46,1z" fill="#ddd9d8" stroke="none" stroke-width="1"></path><path d="M66.3,101.65l6.41,-1.81l12.15,-0.65l1.8,-5.58l-3.28,-9.69l-3.78,-0.49l-5.25,1.64l-5.04,2.46l-2.68,-0.49l-2.08,0.82z" fill="#a1a1a1" stroke="none" stroke-width="1"></path><path d="M66.19,98.37c0,0 4.27,-1.97 4.93,-1.81l-1.81,-9.03l2.13,-0.82c0,0 1.48,8.54 1.48,9.52c0,0 9.2,0.49 10.01,0.49c0,0 1.97,-3.78 1.48,-7.72l1.81,5.25l0.16,2.96l-2.63,3.94l-2.96,0.66l-4.92,-0.16l-1.64,-2.13l-5.75,0.82l-1.81,0.66l-0.48,-2.63z" fill="#ddd9d8" stroke="none" stroke-width="1"></path><path d="M59.73,86.71l-3.61,-9.2l-3.78,-5.42c0,0 0.82,-2.3 1.97,-2.3c1.15,0 3.78,0 3.78,0l3.61,1.31l-0.33,6.07l-1.64,9.54z" fill="#a1a1a1" stroke="none" stroke-width="1"></path><path d="M60.44,83.59c0,0 -4.6,-8.87 -4.6,-10.18c0,0 0.82,-1.97 1.97,-1.48c1.15,0.49 3.61,1.81 3.61,1.81v-3.12l-5.58,-1.15l-3.78,0.49l6.4,15.11l1.31,0.16l0.67,-1.64z" fill="#ddd9d8" stroke="none" stroke-width="1"></path><path d="M40.36,61.92l-4.54,-0.49l-4.27,-1.31v1.47l2.08,2.3l6.56,2.96z" fill="#a1a1a1" stroke="none" stroke-width="1"></path><path d="M33.02,62.42c0,0 5.09,2.13 6.73,1.64l0.16,1.97l-4.6,-0.99l-2.79,-1.97l0.5,-0.65z" fill="#ddd9d8" stroke="none" stroke-width="1"></path><path d="M66.28,70.36c-2.79,-0.08 -5.3,-0.41 -7.51,-1.03c0.15,-0.9 -0.13,-1.79 0.09,-2.44c0.62,-0.44 1.64,-0.43 2.57,-0.54c-0.8,-0.39 -1.93,-0.55 -2.86,-0.33c-0.02,-0.63 -0.3,-1.01 -0.47,-1.51c1.57,-0.56 5.27,-4.23 7.34,-3.01c0.99,0.58 1.41,3.88 1.49,5.48c0.08,1.34 -0.1,2.68 -0.65,3.38z" fill="#636363" stroke="none" stroke-width="1"></path><path d="M66.28,70.36c-2.79,-0.08 -5.3,-0.41 -7.51,-1.03c0.15,-0.9 -0.13,-1.79 0.09,-2.44c0.62,-0.44 1.64,-0.43 2.57,-0.54c-0.8,-0.39 -1.93,-0.55 -2.86,-0.33c-0.02,-0.63 -0.3,-1.01 -0.47,-1.51c1.57,-0.56 5.27,-4.23 7.34,-3.01c0.99,0.58 1.41,3.88 1.49,5.48c0.08,1.34 -0.1,2.68 -0.65,3.38z" fill="none" stroke="#636363" stroke-width="0.7881"></path><path d="M52.97,65.8c-0.01,0.21 -0.02,0.42 -0.03,0.64c-0.87,0.57 -2.28,0.57 -3.23,1.04c1.41,0.06 2.52,0.4 3.47,0.88c-0.02,0.53 -0.04,1.06 -0.06,1.59c-1.6,1.09 -3.05,2.72 -4.93,3.74c-0.89,0.48 -4,1.73 -4.95,1.51c-0.53,-0.12 -0.58,-0.79 -0.8,-1.41c-0.45,-1.34 -1.5,-3.47 -1.6,-5.48c-0.12,-2.55 -0.37,-6.81 2.37,-6.28c2.21,0.42 4.79,1.44 6.5,2.38c1.06,0.57 1.67,1.28 3.26,1.39z" fill="#636363" stroke="none" stroke-width="1"></path><path d="M52.97,65.8c-0.01,0.21 -0.02,0.42 -0.03,0.64c-0.87,0.57 -2.28,0.57 -3.23,1.04c1.41,0.06 2.52,0.4 3.47,0.88c-0.02,0.53 -0.04,1.06 -0.06,1.59c-1.6,1.09 -3.05,2.72 -4.93,3.74c-0.89,0.48 -4,1.73 -4.95,1.51c-0.53,-0.12 -0.58,-0.79 -0.8,-1.41c-0.45,-1.34 -1.5,-3.47 -1.6,-5.48c-0.12,-2.55 -0.37,-6.81 2.37,-6.28c2.21,0.42 4.79,1.44 6.5,2.38c1.06,0.57 1.67,1.28 3.26,1.39z" fill="none" stroke="#636363" stroke-width="0.7881"></path><path d="M54.55,68.84c-0.24,-1.38 -0.52,-1.78 -0.41,-2.99c3.69,-2.46 4.38,4.23 0.41,2.99z" fill="#636363" stroke="none" stroke-width="1"></path><path d="M54.55,68.84c-0.24,-1.38 -0.52,-1.78 -0.41,-2.99c3.69,-2.46 4.38,4.23 0.41,2.99z" fill="none" stroke="#636363" stroke-width="0.7881"></path><path d="M59.9,69.97c0,0 -1.15,-1.64 -0.33,-2.13c0.82,-0.49 1.64,0 2.13,-0.82c0.49,-0.82 0,-1.32 0.16,-2.3c0.16,-0.98 0.99,-1.15 1.81,-1.31c0.82,-0.16 3.12,-0.49 3.45,0.33l-0.98,-2.96l-1.97,-0.65l-6.24,3.61l-0.33,1.81v3.61l2.3,0.81z" fill="#969696" stroke="none" stroke-width="1"></path><path d="M42.66,75.38c-0.2,-2.56 -0.4,-5.12 -0.64,-7.68c-0.35,-3.82 0.92,-3.16 4.23,-3.16c0.51,0 3.11,0.61 3.3,0.99c0.9,1.83 -1.5,1.42 1.03,2.8c2.13,1.16 5.91,-0.71 5.04,-3.3c-0.48,-0.58 -2.52,-0.18 -3.24,-0.56c-1.28,-0.66 -2.57,-1.33 -3.85,-1.99c-1.63,-0.85 -5.4,-2.08 -7.14,-0.9c-4.41,3 0.28,10.49 1.85,13.62l-0.58,0.18z" fill="#969696" stroke="none" stroke-width="1"></path><path d="M46.98,17.22c-4.48,-1.04 -6.7,1.87 -8.05,4.9c-1.21,-0.3 -0.73,-1.94 -0.42,-2.78c0.8,-2.2 4.03,-5.13 6.66,-4.74c1.13,0.16 2.67,1.2 1.81,2.62z" fill="#323232" stroke="none" stroke-width="1"></path><path d="M68.78,22.31c0.07,0 0.14,0 0.21,0.01c1.01,2.1 1.89,4.32 3.16,6.18c-0.86,1.99 -6.47,3.75 -6.38,0.18c1.22,-0.53 3.31,-0.11 4.39,-0.79c-0.62,-1.71 -1.52,-3.16 -1.38,-5.58z" fill="#323232" stroke="none" stroke-width="1"></path><path d="M49.27,22.36c0.96,1.76 1.27,3.6 2.63,4.94c0.62,0.6 1.81,1.33 1.22,2.99c-0.14,0.39 -1.15,1.27 -1.73,1.44c-2.13,0.63 -7.1,0.13 -5.42,-2.53c1.76,0.08 4.13,1.14 5.45,-0.13c-1.01,-1.62 -2.81,-4.82 -2.15,-6.71z" fill="#323232" stroke="none" stroke-width="1"></path><path d="M67.98,40.24c-3.21,2.06 -6.79,4.31 -12.05,3.78c-1.12,-0.98 -1.55,-3.15 -0.46,-4.59c0.57,0.98 0.21,2.77 1.79,3.04c2.98,0.51 6.46,-1.83 8.6,-2.64c1.33,-2.25 -0.11,-3.07 -1.31,-4.52c-2.46,-2.96 -5.75,-6.63 -5.63,-11.06c1,-0.72 1.08,1.1 1.22,1.43c1.28,3 4.51,6.84 6.87,9.41c0.58,0.63 1.53,1.24 1.63,1.65c0.31,1.24 -0.78,2.69 -0.66,3.5z" fill="#323232" stroke="none" stroke-width="1"></path><path d="M25.66,38.07c-1,-0.58 -1.25,-3.1 -2.43,-3.18c-1.69,-0.1 -1.38,3.28 -1.37,5.26c-1.16,-1.05 -1.36,-4.3 -0.51,-5.97c-0.98,-0.48 -1.41,0.53 -1.95,0.88c0.7,-5.03 7.37,-2.33 6.26,3.01z" fill="#323232" stroke="none" stroke-width="1"></path><path d="M70.03,42.34c-1.49,2.85 -3.61,5.98 -7.99,6.07c-0.09,-0.92 -0.16,-2.31 0.01,-2.87c3.34,-0.32 5.41,-2.03 7.98,-3.2z" fill="#323232" stroke="none" stroke-width="1"></path><path d="M49.02,44.18c2.8,1.47 7.93,1.63 11.74,1.52c0.2,0.83 0.2,1.86 0.21,2.88c-4.89,0.24 -10.67,-0.96 -11.95,-4.4z" fill="#323232" stroke="none" stroke-width="1"></path><path d="M48.49,46.93c1.94,4.86 8.58,4.29 14.19,4.16c-0.25,0.63 -0.78,1.37 -1.45,1.65c-1.8,0.73 -6.75,1.29 -9.25,-0.04c-1.58,-0.84 -2.6,-2.74 -3.46,-3.86c-0.42,-0.53 -2.5,-1.91 -0.03,-1.91z" fill="#323232" stroke="none" stroke-width="1"></path><path d="M67.75,73.71c-2.27,3.89 -4.44,7.88 -7.13,11.31c1.13,-3.32 1.61,-8.88 1.78,-13.11c2.36,-1.11 4.38,0.25 5.35,1.8z" fill="#b0b0b0" stroke="none" stroke-width="1"></path><path d="M79.96,87.68c-2.54,0.51 -4.32,2.98 -6.81,2.82c1.37,-1.92 3.76,-2.73 6.81,-2.82z" fill="#323232" stroke="none" stroke-width="1"></path><path d="M81.08,91.66c-2.07,0.22 -4.5,0.56 -6.61,0.38c1,-1.52 4.84,-0.99 6.61,-0.38z" fill="#323232" stroke="none" stroke-width="1"></path><path d="M81.8,95.09c-2.33,0.05 -5.22,0 -7.43,-0.18c1.31,-1.41 5.92,-0.52 7.43,0.18z" fill="#323232" stroke="none" stroke-width="1"></path><path d="M63.37,104.47c0.33,2.92 1.49,5.89 1.35,9.09c-1.29,0.43 -2.02,0.81 -3.75,0.81c-0.12,-2.72 -0.49,-6.88 -0.37,-9.47c0.84,0.05 2.09,-0.61 2.77,-0.43z" fill="#ddd9d8" stroke="none" stroke-width="1"></path><path d="M59.62,61.39c-1.17,0.76 -2.16,1.71 -3.29,2.53c-2.49,0.12 -3.85,-0.17 -5.67,-1.6c0.03,-0.11 0.21,-0.06 0.22,-0.2c2.66,1.18 6.05,-0.49 8.74,-0.73z" fill="#818181" stroke="none" stroke-width="1"></path><path d="M45.63,79.55c0.73,-3.17 3.6,-4.82 6.21,-6.56c2.69,3.41 4.32,7.8 6.13,12.04c-4.26,-1.29 -8.61,-3.37 -12.34,-5.48z" fill="#b0b0b0" stroke="none" stroke-width="1"></path><path d="M71.14,84.9c3.98,-1.98 11.43,-5.33 13.92,0.01c0.92,1.97 2,5.3 2.48,7.32c0.67,2.87 -0.73,8.89 -3.68,9.85c-2.6,0.85 -5.63,0.8 -8.77,0.17c-0.37,-0.31 -0.78,-0.84 -1.07,-1.4c-2.23,-0.09 -4.33,0.12 -6.1,1.04c0.17,1.66 -0.95,1.92 -2,2.26c-0.78,3.08 1.56,7.11 0.99,9.92c-0.4,2 -2.86,2.32 -4.67,2.69c-0.06,1.11 0.08,2.04 0.2,2.98c-0.41,1.53 -2.27,2.39 -4.04,2.61c-2.53,0.3 -5.64,0.53 -8.8,0.52c-4.07,-0.01 -8.22,-0.4 -11.35,-1.53c-1.56,-3.81 -2.78,-8.45 -4.07,-12.81c-5.43,0.58 -9.83,-2.34 -13.97,-4.26c-1.43,-0.67 -3.42,-1.03 -3.96,-2.17c-0.52,-1.1 -0.31,-3.23 -0.43,-5.23c-0.33,-5.11 -0.61,-10.04 -1.96,-15.27c-0.61,-2.35 -1.67,-4.42 -2.4,-6.68c-0.68,-2.1 -1.87,-4.69 -2.18,-6.78c-0.46,-3.1 2.46,-3.27 4.32,-4.62c2.89,-2.08 5.15,-3.23 8.27,-5.1c0.93,-0.56 3.71,-1.96 4.03,-2.61c0.63,-1.29 -1.08,-3.09 -1.54,-4.1c-0.72,-1.59 -1.1,-2.94 -1.21,-4.51c-2.62,-0.41 -4.61,-1.97 -5.81,-3.73c-1.99,-2.91 -3.36,-8.29 -1.65,-12.39c0.13,-0.32 0.81,-0.96 0.91,-1.45c0.2,-0.98 -0.37,-2.27 -0.4,-3.31c-0.18,-5.32 0.9,-9.91 4.49,-11.52c1.45,-5.8 6.66,-7.72 11.57,-10.6c1.83,-1.08 3.86,-1.76 5.94,-2.53c7.49,-2.76 18.98,-2.24 25.2,2.46c2.63,2 6.85,6.2 8.36,9.25c3.98,8.05 3.7,21.49 0.92,31.28c-0.38,1.31 -0.92,3.25 -1.68,4.82c-0.53,1.1 -2.17,3.31 -1.97,4.28c0.21,1 3.74,3.69 4.51,4.43c1.37,1.32 3.96,3.07 4.17,4.73c0.23,1.77 -0.78,4.19 -1.29,5.9c-1.68,5.72 -3.34,10.99 -5.28,16.08zM61.64,6.31c-5.1,-2.88 -13.73,-5.04 -19.15,-2.33c-4.37,2.18 -10.29,5.79 -12.31,10.36c1.88,4.41 -0.56,8.46 -0.71,12.94c-0.08,2.38 1.12,4.47 1.22,7.06c-0.64,1.06 -2.62,1.2 -3.97,1.12c-0.46,-2.29 -1.26,-4.88 -3.63,-5.14c-3.34,-0.36 -5.79,2.4 -5.94,5.29c-0.18,3.4 2.61,9.04 6.57,8.65c1.53,-0.15 1.91,-1.68 3.57,-1.67c0.9,1.8 -1.39,2.37 -1.63,3.65c-0.06,0.33 0.19,1.64 0.33,2.25c0.72,2.97 2.33,6.82 3.9,9.08c2,2.87 5.94,3.3 10.17,3.58c0.76,-1.63 3.54,-1.5 5.36,-1.07c-2.18,-0.86 -4.2,-2.95 -5.87,-4.8c-1.93,-2.12 -3.88,-4.39 -3.98,-7.17c3.64,5.05 6.64,9.45 13.26,11.67c5,1.68 10.85,-0.77 14.7,-3.47c1.6,-1.12 2.54,-2.91 3.68,-4.54c4.25,-6.1 6.22,-14.82 5.79,-23.27c-0.18,-3.48 -0.17,-6.95 -1.34,-9.3c-1.22,-2.45 -5.35,-4.65 -7.77,-2.43c-0.45,-2.38 2.01,-3.86 4.9,-3c-2.05,-2.62 -4.22,-5.81 -7.15,-7.46v0zM36.08,5c-4.91,1.39 -11.21,4.96 -13.22,9.37c1.56,-0.23 2.65,-1.01 4.19,-1.11c0.58,-0.04 1.34,0.25 2.01,0.08c1.33,-0.33 2.46,-3.32 3.47,-4.44c0.98,-1.09 2.16,-1.55 2.97,-2.54c0.52,-0.25 1.29,-0.23 1.31,-1.01c-0.22,-0.25 -0.46,-0.43 -0.73,-0.35zM20.56,18.85c-2.17,2.39 -1.71,6.86 -1.45,10.04c3.92,-2.47 9.13,0.2 9.08,4.39c1.87,-0.05 0.7,-2.34 0.36,-3.81c-1.11,-4.82 1.87,-10.05 0.13,-14.45c-3.36,0.25 -6.12,1.63 -8.12,3.83zM64.06,59.22c4.55,-2.21 5.38,8.25 3.59,11.62c0.28,1 1.23,1.39 1.61,2.3c-2.54,4.55 -5.36,8.8 -7.95,13.3c1.93,-1.2 4.68,-0.22 6.95,-1.11c0.83,-0.33 1.43,-2.23 2.06,-3.75c1.73,-4.18 3.54,-9.45 4.35,-13.44c0.18,-0.91 0.68,-2.89 0.57,-3.7c-0.2,-1.45 -2.16,-2.52 -3.16,-3.42c-1.84,-1.66 -3,-3.11 -4.92,-4.65c-0.79,1.15 -2.46,1.91 -3.1,2.85v0zM30.97,62.83c-0.45,-0.32 -3.47,-4.25 -3.88,-4.08c-5.46,2.16 -10.57,5.88 -15.14,9.4c4.35,9.34 6.11,20.78 6.42,31.81c4.98,2.33 9.37,5.69 16.14,6.04c-0.78,-5.54 -1.5,-10.48 -1.94,-15.7c-1.7,-0.71 -4.14,0.03 -5.73,-0.22c-0.01,-1.92 2.43,-0.84 2.63,-2.13c0.15,-0.97 -1.34,-1.05 -0.86,-2.58c1.25,0.45 1.9,1.45 3.22,1.83c1.21,-2.65 -0.01,-7.34 0.16,-9.56c0.03,-0.42 0.21,-2.31 1.14,-1.98c0.83,0.3 -0.05,5.02 0.04,7.12c0.08,1.93 -0.23,3.8 0.55,5.01c6.54,-0.89 13.18,-1.46 20.26,-1.66c-1.56,-0.67 -3.4,-1.3 -5.43,-2.44c-1.1,-0.62 -4.56,-1.91 -4.88,-2.95c-0.51,-1.67 1.32,-2.55 1.64,-3.97c-3.3,1.8 -3.95,-1.72 -4.72,-4.22c-0.71,-2.26 -1.11,-3.95 -1.29,-5.26c-2.84,-1.35 -5.88,-2.72 -8.33,-4.46v0zM66.95,66.99c-0.08,-1.6 -0.5,-4.9 -1.49,-5.48c-2.08,-1.21 -5.78,2.45 -7.34,3.01c0.17,0.49 0.45,0.88 0.47,1.51c0.93,-0.23 2.05,-0.07 2.86,0.33c-0.93,0.1 -1.96,0.1 -2.57,0.54c-0.23,0.65 0.05,1.54 -0.09,2.44c2.2,0.62 4.72,0.95 7.51,1.03c0.53,-0.71 0.71,-2.05 0.65,-3.38zM50.88,62.11c0,0.14 -0.19,0.09 -0.22,0.2c1.83,1.43 3.19,1.72 5.67,1.6c1.12,-0.81 2.12,-1.77 3.29,-2.53c-2.69,0.25 -6.08,1.92 -8.74,0.73zM33.36,61.43c-1.42,1.44 3.98,3.41 5.71,3.52c-0.01,-0.91 0.52,-1.77 0.41,-2.43c-2.04,-0.36 -4.73,-0.12 -6.12,-1.09zM49.72,64.41c-1.71,-0.94 -4.29,-1.96 -6.5,-2.38c-2.74,-0.52 -2.49,3.74 -2.37,6.28c0.09,2.01 1.14,4.14 1.6,5.48c0.21,0.63 0.26,1.29 0.8,1.41c0.95,0.22 4.06,-1.02 4.95,-1.51c1.88,-1.02 3.33,-2.65 4.93,-3.74c0.02,-0.53 0.04,-1.06 0.06,-1.59c-0.96,-0.48 -2.06,-0.82 -3.47,-0.88c0.96,-0.48 2.36,-0.47 3.23,-1.04c0.01,-0.21 0.02,-0.42 0.03,-0.64c-1.6,-0.11 -2.21,-0.82 -3.26,-1.39zM54.13,65.85c-0.11,1.21 0.17,1.61 0.41,2.99c3.98,1.24 3.29,-5.45 -0.41,-2.99zM57.37,70.12c-1.02,-0.11 -1.89,1.17 -3.21,0.62c-0.3,0.33 -0.58,0.7 -0.89,1.03c2.93,3.53 4.26,8.54 6.52,12.69c1.22,-3.99 1.07,-8.35 1.34,-12.7c-1.67,0.1 -2.59,-1.51 -3.76,-1.64zM62.4,71.91c-0.17,4.24 -0.66,9.79 -1.78,13.11c2.69,-3.43 4.87,-7.42 7.13,-11.31c-0.97,-1.55 -2.99,-2.91 -5.35,-1.8zM57.96,85.02c-1.8,-4.24 -3.44,-8.62 -6.13,-12.04c-2.61,1.75 -5.47,3.39 -6.21,6.56c3.74,2.12 8.09,4.2 12.34,5.48zM81.8,100.62c2.57,-0.62 4.18,-3.76 3.46,-6.99c-0.48,-2.17 -1.34,-6.25 -2.26,-7.63c-0.68,-1.02 -2.52,-2.37 -3.98,-1.43c-2.39,1.53 -6.59,1.97 -8.33,3.82c0.87,2.91 1.14,6.89 1.5,10.58c2.98,0.19 6.65,-0.82 9.13,0.25c-1.73,0.56 -3.98,0.57 -5.47,1.38c1.22,0.59 4.08,0.46 5.95,0.02v0zM68.56,88.52c-0.82,-0.19 -1.77,0 -2.55,0.01c0.37,3.66 1.26,7.7 1.57,11.54c1.23,0.04 1.88,-0.54 2.89,-0.74c0.06,-3.38 -0.28,-8.02 -1.91,-10.81v0zM59.81,89.24c-0.06,4.49 0.2,8.92 0.54,13.41c1.72,-0.26 2.9,-0.43 4.5,-0.78c-0.52,-4.33 -0.45,-9.2 -1.52,-13.02c-1.22,0.01 -2.3,-0.02 -3.52,0.39v0zM33.74,90.15c1.14,10.45 2.78,19.24 5.81,28.5c6.7,2.03 14.79,2.21 20.71,0.38c-1.09,-5.23 -0.61,-11.58 -1.25,-17.16c-0.48,-4.19 -0.24,-8.41 -0.89,-12.68c-7.18,-1.51 -17.33,-0.36 -24.38,0.96v0zM60.59,104.89c-0.11,2.6 0.26,6.75 0.38,9.47c1.72,0 2.46,-0.38 3.75,-0.81c0.15,-3.2 -1.02,-6.16 -1.35,-9.09c-0.68,-0.17 -1.93,0.49 -2.78,0.43v0z" fill="#323232" stroke="none" stroke-width="1"></path><path d="M44.57,45.42c0.22,-0.29 1.4,-0.72 3.07,0.07c0,0 -1.97,0.33 -1.81,3.62l-0.82,-0.16c0,0 -0.85,-2.98 -0.44,-3.53z" fill="#afafaf" stroke="none" stroke-width="1"></path><path d="M58.96,73.66c0,0.5 -0.4,0.9 -0.9,0.9c-0.5,0 -0.9,-0.4 -0.9,-0.9c0,-0.5 0.4,-0.9 0.9,-0.9c0.5,-0.01 0.9,0.4 0.9,0.9z" fill="#5d5d5d" stroke="none" stroke-width="1"></path><path d="M59.87,77.85c0,0.5 -0.4,0.9 -0.9,0.9c-0.5,0 -0.9,-0.4 -0.9,-0.9c0,-0.5 0.4,-0.9 0.9,-0.9c0.49,-0.01 0.9,0.39 0.9,0.9z" fill="#5d5d5d" stroke="none" stroke-width="1"></path></g></g></g></svg>