<svg version="1.1" xmlns="http://www.w3.org/2000/svg" xmlns:xlink="http://www.w3.org/1999/xlink" width="24px" height="24px" viewBox="0,0,256,256"><g fill="#979797" fill-rule="nonzero" stroke="none" stroke-width="1" stroke-linecap="butt" stroke-linejoin="miter" stroke-miterlimit="10" stroke-dasharray="" stroke-dashoffset="0" font-family="none" font-weight="none" font-size="none" text-anchor="none" style="mix-blend-mode: normal"><g transform="translate(0.00107,0) scale(10.66667,10.66667)"><path d="M23.693,10.7058l-4.73,-8.1844c-0.4094,-0.7106 -1.4166,-1.2942 -2.2402,-1.2942h-9.4503c-0.819,0 -1.8308,0.5836 -2.2402,1.2942l-4.7253,8.1844c-0.4095,0.7106 -0.4095,1.873 0,2.5837l4.7252,8.189c0.4094,0.7107 1.4166,1.2943 2.2402,1.2943h9.455c0.819,0 1.826,-0.5836 2.2402,-1.2942l4.7252,-8.189c0.4095,-0.7107 0.4095,-1.8732 0,-2.5838zM10.9763,5.7547c0,-0.5365 0.4377,-0.9742 0.9742,-0.9742c0.5365,0 0.9742,0.4377 0.9742,0.9742v5.8217c0,0.5366 -0.4377,0.9742 -0.9742,0.9742c-0.5365,0 -0.9742,-0.4376 -0.9742,-0.9742zM11.9505,18.1841c-3.6427,0 -6.6077,-2.965 -6.6077,-6.6077c0.0047,-2.0896 0.993,-4.0521 2.6685,-5.304c0.18452,-0.13786 0.41638,-0.1965 0.64426,-0.16294c0.22788,0.03356 0.43299,0.15654 0.56994,0.34174c0.13789,0.18453 0.19655,0.41641 0.16299,0.64431c-0.03356,0.2279 -0.15656,0.43303 -0.34179,0.56999c-2.1602,1.6048 -2.612,4.6592 -1.0072,6.8194c1.6049,2.1603 4.6593,2.612 6.8195,1.0072c1.2378,-0.9177 1.9673,-2.372 1.9673,-3.9157c-0.00412,-1.54879 -0.74065,-3.00434 -1.9861,-3.925c-0.386,-0.2824 -0.466,-0.8284 -0.1836,-1.2143c0.2824,-0.386 0.8283,-0.466 1.2143,-0.1835c1.6895,1.2471 2.6826,3.2238 2.6873,5.3228c0,3.6474 -2.965,6.6077 -6.6077,6.6077z"></path></g></g></svg>